<svg xmlns="http://www.w3.org/2000/svg" width="28" height="18"><g fill="none" fill-rule="evenodd"><rect width="28" height="18" fill="#C00" rx="2"/><path fill="#FFF" d="M23.868 3.795H14.41v-.08L14.649 3h-1.987l-.238.715v.08h-3.1l-.397 1.35h3.338l-.08.557H8.927l-.715 3.973h2.463c-.158.398-2.701 1.51-2.701 1.51s.079.398.715 1.749c1.112-.477 2.463-1.51 2.463-1.51l-.238 1.51H12.9s.08-.239.238-1.749c.715.716 2.464 1.749 2.464 1.749s.476-.398 1.51-1.749c-1.908-.556-2.464-1.51-2.464-1.51h1.987l.477-3.02.715-1.032H14.33v-.557h9.457V4.67h-.397l.477-.874zm-12.16 4.45h-1.27l.237-1.271h1.272l-.238 1.271zm3.497-1.271l-.238 1.271h-1.272l.239-1.271h1.271zM7.02 12.457l.715-3.497h-.238s.238-.794.715-1.51c-.556-.476-2.464-1.51-2.464-1.51s-.397.636-.953 1.51c.397.16 1.986 1.51 1.986 1.51h-1.51L4 10.47h1.51s-.397 2.464-.477 2.782c-.08.318-.477.238-.477.238h-.238L4.079 15h1.51c.477 0 .795-.08 1.272-.477C7.099 15 8.132 15 8.132 15h8.186l.477-1.748H7.894c-.874 0-.874-.795-.874-.795zm1.43-7.709C8.132 4.033 6.225 3 6.225 3s-.477.795-.953 1.51c.476.238 2.225 1.748 2.225 1.748s.318-.477.953-1.51zm9.616 1.113L17.67 7.53h5.006v-.398h-.397l.397-1.271h-4.609zm-.397 2.066l-.397 1.669h4.132v-.397h-.397l.397-1.272h-3.735z"/></g></svg>